<svg xmlns="http://www.w3.org/2000/svg" version="1.1" xmlns:xlink="http://www.w3.org/1999/xlink" xmlns:svgjs="http://svgjs.dev/svgjs" width="100%" height="100%" viewBox="0 0 1000 600"><rect width="1000" height="600" x="0" y="0" fill="#141A4"/><g><rect width="333.3333333333333" height="333.3333333333333" rx="13.333333333333334" ry="13.333333333333334" y="188.78699704749056" fill="#ec8b5e" transform="matrix(0.7504588223611338,0,0,0.7504588223611337,0,33.24666976151843)" x="166.56477355957028"/><path d="M392.8840513265067 286.40117808877676L389.89550252933265 302.8234016772086Q380.5451914411444 300.90007819387876 369.98170707885583 299.1838818549075Q359.44781230861844 297.49727510798743 345.59988322864353 297.05343122721905L345.59988322864353 297.05343122721905Q331.54482700431 297.2901479636289 321.3068281545849 301.31433248259594Q311.0688293048598 305.36810659361424 304.58870864564074 312.94304215872876Q298.07899839437044 320.488388131792 294.88332245283783 330.9335141258757Q291.6876465113051 341.3786401199594 291.6876465113051 353.95421674173156L291.6876465113051 353.95421674173156Q291.6876465113051 370.1397235937536 295.85977899052835 381.6500749016815Q300.00232187770035 393.16042620960934 307.340540706405 400.49864503831407Q314.70834912716094 407.8368638670187 324.50250409611755 411.2692565449612Q334.2966590650742 414.6720596308526 345.59988322864353 414.6720596308526L345.59988322864353 414.6720596308526Q352.8493332811945 414.6720596308526 358.70807250733776 413.81396146136694Q364.566811733481 412.9558632918813 368.9164817650116 411.8018692018834Q373.29574138859346 410.6182855198342 376.9056716188433 409.13880591727275L376.9056716188433 409.13880591727275L376.9056716188433 370.1397235937536L350.2750387727376 370.1397235937536L350.2750387727376 354.1613438860901L395.01450195419517 354.1613438860901L395.01450195419517 417.8677355723852Q387.5579247572856 422.7500182608379 374.4497354785913 426.7150235957025Q361.37113579194835 430.650439338516 345.59988322864353 430.44331219415733L345.59988322864353 430.44331219415733Q331.10098312354154 430.44331219415733 317.78566670048866 427.0109195162148Q304.47035027743584 423.60811643032355 294.1435826515571 414.997545143416Q283.8168150256783 406.3573842644573 277.63259028697155 391.4442298706381Q271.4483655482648 376.53107547681896 271.4483655482648 353.7470895973729L271.4483655482648 353.7470895973729Q271.4483655482648 335.1944153812526 277.21833599825436 321.46484466948255Q282.95871685619267 307.70568436566134 292.8712301933543 298.65126919798536Q302.7837435305158 289.5968540303095 315.86234321715887 285.04005685442024Q328.9705324958531 280.45367008647986 343.6765597453137 280.45367008647986L343.6765597453137 280.45367008647986Q353.2635875699117 280.45367008647986 362.1996443693827 281.40053703211913Q371.16529076090495 282.37699356980966 378.6218679578146 283.5309876598076Q386.07844515472414 284.71457134185675 392.8840513265067 286.40117808877676L392.8840513265067 286.40117808877676Z " fill="#141a46" transform="matrix(0.7504588223611338,0,0,0.7504588223611337,0,33.24666976151843)"/><path d="M673.9075297122027 286.4854851963222L671.6759786536959 298.7479687356421Q664.6940961340111 297.3118220148209 656.806336451962 296.0303372485496Q648.9406713348488 294.770947047214 638.6004149449358 294.43952857317834L638.6004149449358 294.43952857317834Q628.1054966004729 294.61628509266404 620.4607771327168 297.62114592392084Q612.8160576649606 300.6481013201133 607.9773479440397 306.3043099436554Q603.1165436581832 311.93842400226185 600.7303306451264 319.737805424568Q598.3441176320695 327.5371868468742 598.3441176320695 336.9273769445515L598.3441176320695 336.9273769445515Q598.3441176320695 349.0131039643858 601.4594512880049 357.6078897243775Q604.5526903790045 366.20267548436925 610.032142483061 371.6821275884257Q615.5336891520531 377.1615796924822 622.8469901457735 379.7245492250247Q630.160291139494 382.2654241926315 638.6004149449358 382.2654241926315L638.6004149449358 382.2654241926315Q644.0135833541851 382.2654241926315 648.388307211456 381.6246818094959Q652.763031068727 380.9839394263603 656.0109321142764 380.1222513938675Q659.2809277247618 379.23846879643907 661.9764646469185 378.13374054965345L661.9764646469185 378.13374054965345L661.9764646469185 349.0131039643858L642.0913562047782 349.0131039643858L642.0913562047782 337.0820388991016L675.498338387574 337.0820388991016L675.498338387574 384.6516372056883Q669.9305080237747 388.2972404200808 660.1426157572545 391.2579121214661Q650.37681805567 394.1964892579157 638.6004149449358 394.0418273033657L638.6004149449358 394.0418273033657Q627.7740781264372 394.0418273033657 617.831523905367 391.4788577708232Q607.8889696842969 388.9379828032164 600.1779665217335 382.5084644069243Q592.4669633591703 376.05685144569657 587.8491992876066 364.92119071809805Q583.2314352160429 353.7855299904994 583.2314352160429 336.77271499000153L583.2314352160429 336.77271499000153Q583.2314352160429 322.9194227753105 587.5398753785066 312.6675446451403Q591.8262209760346 302.39357195003447 599.227900229498 295.6326350797068Q606.6295794829613 288.87169820937913 616.3953771845457 285.46913520927956Q626.1832694510659 282.04447764424424 637.1642682241146 282.04447764424424L637.1642682241146 282.04447764424424Q644.3229072632852 282.04447764424424 650.99546587387 282.751503722187Q657.6901190493905 283.4806243650655 663.2579494131899 284.3423123975582Q668.8257797769892 285.2260949949867 673.9075297122027 286.4854851963222L673.9075297122027 286.4854851963222ZM716.3953780835759 389.88804909545195L684.4024480566658 311.93842400226185L697.9243217973211 311.93842400226185L712.8823422587978 348.06303767215013Q715.1138933173047 353.2994495619138 716.9477422069688 358.55795601661305Q718.7815910966328 363.81646247131243 720.1956432525183 367.94814611429047L720.1956432525183 367.94814611429047Q721.9632084473752 372.8752340949542 723.2225986487108 377.49299816651785L723.2225986487108 377.49299816651785L723.3772606032608 377.49299816651785Q724.813407324082 372.8752340949542 726.5588779540033 367.94814611429047L726.5588779540033 367.94814611429047Q727.9950246748244 363.81646247131243 729.9172518242314 358.55795601661305Q731.8173844087025 353.2994495619138 733.8942735126594 348.06303767215013L733.8942735126594 348.06303767215013L747.7254711624148 311.93842400226185L761.0926829485203 311.93842400226185L723.2225986487108 407.38694452453547Q720.991047590204 413.28619336237045 717.4117280706187 417.57253895989845Q713.8324085510334 421.8809791223622 710.496129245741 424.731177999069L710.496129245741 424.731177999069Q706.519107557313 428.06745730436137 702.2327619597849 430.4536703174183L702.2327619597849 430.4536703174183L696.0241892128499 419.4947661093054Q699.3604685181424 417.9039574339341 702.2327619597849 415.5177444208773L702.2327619597849 415.5177444208773Q704.7736369273917 413.4408553169204 707.3145118949985 410.3476162259208Q709.8553868626053 407.2322825699855 711.4461955379766 402.9459369724575L711.4461955379766 402.9459369724575L716.3953780835759 389.88804909545195ZM773.97381430604 391.96493819940883L773.97381430604 326.4324586000886Q773.97381430604 321.01929019083934 773.0237480138045 313.37457072308314L773.0237480138045 313.37457072308314L784.9548130790887 311.7837620477119L786.7002837090099 321.8146945285249Q790.9866293065379 318.6330771777824 795.1404075144517 316.2468641647256Q799.2720911574297 313.8606511516688 804.0445171835433 312.11518052174756Q808.8169432096571 310.3476153268906 813.7440311903207 310.3476153268906L813.7440311903207 310.3476153268906Q821.6980745671768 310.3476153268906 826.3158386387406 313.1315305087903Q830.9336027103043 315.9154456906899 833.1430592038754 322.6100988662105L833.1430592038754 322.6100988662105Q839.683050424846 317.9923347946468 846.7533112042736 314.1699750607687Q853.8235719837014 310.3476153268906 861.4682914514575 310.3476153268906L861.4682914514575 310.3476153268906Q867.3454457243568 310.3476153268906 871.4992239322705 311.87214030745474Q875.6309075752486 313.37457072308314 878.1717825428555 316.8876065478612Q880.7126575104622 320.3785478077036 881.8394803221835 326.1010401260529Q882.9442085689691 331.8235324444022 882.9442085689691 340.4183182043939L882.9442085689691 340.4183182043939L882.9442085689691 391.96493819940883L870.2177391659993 391.96493819940883L870.2177391659993 341.8544649252152Q870.2177391659993 337.0820388991016 870.0630772114494 333.3480574249663Q869.9084152568993 329.6140759508311 868.936254399728 326.98482272348144Q867.9861881074924 324.3555694961317 865.8430153087284 322.9194227753105Q863.6998425099644 321.48327605448924 859.7228208215363 321.48327605448924L859.7228208215363 321.48327605448924Q856.0551230422082 321.48327605448924 852.8072219966587 322.5217206064676Q849.5372263861733 323.5601651584461 846.046285126331 325.4602977429173Q842.5332493015528 327.3825248923242 835.2199483078323 333.2596791652235L835.2199483078323 333.2596791652235L835.2199483078323 391.96493819940883L822.4934789048625 391.96493819940883L822.4934789048625 341.8544649252152Q822.4934789048625 337.0820388991016 822.3388169503125 333.3480574249663Q822.1841549957625 329.6140759508311 821.2119941385912 326.98482272348144Q820.2619278463557 324.3555694961317 818.1187550475915 322.9194227753105Q815.9755822488275 321.48327605448924 811.9985605603995 321.48327605448924L811.9985605603995 321.48327605448924Q807.8668769174215 321.48327605448924 803.4037748004077 323.2508412493462Q798.940672683394 324.9963118792674 794.963650994966 327.3825248923242Q790.9866293065379 329.76873790538104 786.7002837090099 332.95035525612354L786.7002837090099 332.95035525612354L786.7002837090099 391.96493819940883L773.97381430604 391.96493819940883ZM949.9128348891106 373.3613145235398L949.9128348891106 355.2216767113207Q946.7312175383681 355.37633866587066 943.8810186616613 355.5310006204206Q941.0087252200188 355.6856625749706 938.2248100381191 355.9287027892634Q935.4408948562195 356.17174300355623 933.2093437977127 356.48106691265616L933.2093437977127 356.48106691265616Q921.7643591610141 357.91721363347745 916.9919331349004 361.4965331530627Q912.2195071087867 365.075852672648 912.2195071087867 371.77050584816857L912.2195071087867 371.77050584816857Q912.2195071087867 377.3383362119679 915.644164673822 380.1222513938675Q919.0467276739216 382.9061665757671 924.6145580377209 382.9061665757671L924.6145580377209 382.9061665757671Q932.259277505477 382.9061665757671 938.2248100381191 380.27691334841745Q944.1903425707612 377.6476601210678 949.9128348891106 373.3613145235398L949.9128348891106 373.3613145235398ZM951.3489816099318 393.24642296568015L949.7581729345605 384.49697525113834Q942.2902099862902 388.78332084866645 935.8385970250623 391.4125740760161Q929.3869840638346 394.0418273033657 921.9190211155642 394.0418273033657L921.9190211155642 394.0418273033657Q911.2694408165512 394.0418273033657 904.9724898098734 388.8716991084092Q898.6976333681314 383.70157091345277 898.6976333681314 371.77050584816857L898.6976333681314 371.77050584816857Q898.6976333681314 365.56193310123365 901.8792507188738 360.94416902967Q905.0608680696163 356.3264049581062 910.2309962645727 353.23316586710666Q915.4011244595292 350.1178322111713 921.9190211155642 348.37236158125006Q928.4369177715989 346.62689095132885 935.2862329016696 346.1408105227432L935.2862329016696 346.1408105227432Q938.1364317783764 345.8314866136433 942.7541958499401 345.58844639935046Q947.3719599215037 345.34540618505764 949.9128348891106 345.1907442305077L949.9128348891106 345.1907442305077Q949.9128348891106 339.62291386670836 949.6035109800107 335.2481900094375Q949.2720925059749 330.87346615216666 947.6812838306037 327.780227061167Q946.0904751552325 324.66489340523174 942.9972360642328 323.0740847298605Q939.9039969732332 321.48327605448924 934.1594100899483 321.48327605448924L934.1594100899483 321.48327605448924Q929.5637405833202 321.48327605448924 925.2553004208565 322.05773474281773Q920.9689548233284 322.6100988662105 917.6326755180362 323.2508412493462L917.6326755180362 323.2508412493462Q913.6556538296081 324.04624558703176 910.2972799593799 324.9963118792674L910.2972799593799 324.9963118792674L907.756404991773 314.01531310621874Q911.7334266802011 313.0652468139832 916.3511907517648 312.2698424762975L916.3511907517648 312.2698424762975Q920.3282124401928 311.47443813861196 925.5867188948922 310.92207401521915Q930.8231307846559 310.3476153268906 936.8770415770407 310.3476153268906L936.8770415770407 310.3476153268906Q944.9857469084469 310.3476153268906 950.0012131488534 312.73382833994754Q955.0166793892599 315.12004135300435 957.8005945711595 319.1854413011753Q960.5845097530593 323.2508412493462 961.6008597401019 328.4209694443026Q962.6393042920804 333.59109763925915 962.6393042920804 339.31358995760843L962.6393042920804 339.31358995760843L962.6393042920804 377.49299816651785Q962.6393042920804 379.7245492250247 962.7276825518232 382.17704593288863Q962.7939662466304 384.6516372056883 963.0370064609232 387.03785021874523Q963.280046675216 389.42406323180205 963.5893705843159 391.96493819940883L963.5893705843159 391.96493819940883L951.3489816099318 393.24642296568015ZM985.2420442213132 391.96493819940883L985.2420442213132 327.8465107559741Q985.3967061758632 324.51023145068166 984.4466398836275 313.37457072308314L984.4466398836275 313.37457072308314L996.2009484294261 311.7837620477119L997.968513624283 321.9693564830749Q1002.7409396503967 318.7877391323325 1007.4249874167675 316.40152611927556Q1012.1090351831383 314.01531310621874 1017.0582177287378 312.1814642165547Q1021.9853057094015 310.3476153268906 1026.6030697809651 310.3476153268906L1026.6030697809651 310.3476153268906Q1033.1209664369999 310.3476153268906 1037.4956902942708 311.87214030745474Q1041.8704141515418 313.37457072308314 1044.5659510736987 316.8876065478612Q1047.2835825607913 320.3785478077036 1048.4766890673195 326.1010401260529Q1049.6697955738478 331.8235324444022 1049.6697955738478 340.4183182043939L1049.6697955738478 340.4183182043939L1049.6697955738478 391.96493819940883L1036.9433261708782 391.96493819940883L1036.9433261708782 341.8544649252152Q1036.9433261708782 337.0820388991016 1036.7665696513923 333.3480574249663Q1036.6119076968425 329.6140759508311 1035.4188011903143 326.98482272348144Q1034.2256946837856 324.3555694961317 1031.773197975922 322.9194227753105Q1029.298606703122 321.48327605448924 1024.835504586108 321.48327605448924L1024.835504586108 321.48327605448924Q1020.7038209431302 321.48327605448924 1016.0860568715665 323.3171249441533Q1011.4903873649384 325.1509738338174 1007.0272852479247 327.5371868468742Q1002.564183130911 329.923399859931 997.968513624283 333.1050172106735L997.968513624283 333.1050172106735L997.968513624283 391.96493819940883L985.2420442213132 391.96493819940883ZM1072.0957789835952 391.96493819940883L1072.0957789835952 311.7837620477119L1084.8222483865648 310.3476153268906L1084.8222483865648 391.96493819940883L1072.0957789835952 391.96493819940883ZM1070.0188898796382 289.0484547288648L1070.0188898796382 289.0484547288648Q1070.0188898796382 285.3807569495367 1072.493481152438 282.90616567673703Q1074.9459778603018 280.453668968873 1078.61367563963 280.453668968873L1078.61367563963 280.453668968873Q1082.4360353735083 280.453668968873 1085.065288600858 282.90616567673703Q1087.6724472632718 285.3807569495367 1087.6724472632718 289.0484547288648L1087.6724472632718 289.0484547288648Q1087.6724472632718 292.6940579432572 1085.065288600858 295.16864921605685Q1082.4360353735083 297.62114592392084 1078.61367563963 297.62114592392084L1078.61367563963 297.62114592392084Q1074.9459778603018 297.62114592392084 1072.493481152438 295.16864921605685Q1070.0188898796382 292.6940579432572 1070.0188898796382 289.0484547288648ZM1152.2769551352922 373.3613145235398L1152.2769551352922 355.2216767113207Q1149.0953377845494 355.37633866587066 1146.223044342907 355.5310006204206Q1143.3507509012647 355.6856625749706 1140.566835719365 355.9287027892634Q1137.7829205374655 356.17174300355623 1135.573464043894 356.48106691265616L1135.573464043894 356.48106691265616Q1124.10638484226 357.91721363347745 1119.3339588161462 361.4965331530627Q1114.5615327900327 365.075852672648 1114.5615327900327 371.77050584816857L1114.5615327900327 371.77050584816857Q1114.5615327900327 377.3383362119679 1117.9861903550677 380.1222513938675Q1121.4108479201032 382.9061665757671 1126.9786782839024 382.9061665757671L1126.9786782839024 382.9061665757671Q1134.6013031867228 382.9061665757671 1140.566835719365 380.27691334841745Q1146.532368252007 377.6476601210678 1152.2769551352922 373.3613145235398L1152.2769551352922 373.3613145235398ZM1153.6910072911778 393.24642296568015L1152.1001986158062 384.49697525113834Q1144.632235667536 388.78332084866645 1138.180622706308 391.4125740760161Q1131.7511043100162 394.0418273033657 1124.2610467968098 394.0418273033657L1124.2610467968098 394.0418273033657Q1113.6114664977972 394.0418273033657 1107.3366100560547 388.8716991084092Q1101.039659049377 383.70157091345277 1101.039659049377 371.77050584816857L1101.039659049377 371.77050584816857Q1101.039659049377 365.56193310123365 1104.2212764001197 360.94416902967Q1107.402893750862 356.3264049581062 1112.5730219458187 353.23316586710666Q1117.743150140775 350.1178322111713 1124.2610467968098 348.37236158125006Q1130.8010380177802 346.62689095132885 1137.6282585829154 346.1408105227432L1137.6282585829154 346.1408105227432Q1140.5005520245577 345.8314866136433 1145.1183160961218 345.58844639935046Q1149.7139856027493 345.34540618505764 1152.2769551352922 345.1907442305077L1152.2769551352922 345.1907442305077Q1152.2769551352922 339.62291386670836 1151.9455366612565 335.2481900094375Q1151.6362127521566 330.87346615216666 1150.0454040767854 327.780227061167Q1148.4545954014138 324.66489340523174 1145.3392617454788 323.0740847298605Q1142.246022654479 321.48327605448924 1136.5235303361296 321.48327605448924L1136.5235303361296 321.48327605448924Q1131.905766264566 321.48327605448924 1127.619420667038 322.05773474281773Q1123.3109805045742 322.6100988662105 1119.9747011992818 323.2508412493462L1119.9747011992818 323.2508412493462Q1115.9976795108537 324.04624558703176 1112.6614002055612 324.9963118792674L1112.6614002055612 324.9963118792674L1110.1205252379546 314.01531310621874Q1114.0975469263826 313.0652468139832 1118.6932164330105 312.2698424762975L1118.6932164330105 312.2698424762975Q1122.6702381214386 311.47443813861196 1127.928744576138 310.92207401521915Q1133.1872510308372 310.3476153268906 1139.2190672582865 310.3476153268906L1139.2190672582865 310.3476153268906Q1147.3277725896928 310.3476153268906 1152.343238830099 312.73382833994754Q1157.3587050705055 315.12004135300435 1160.1426202524053 319.1854413011753Q1162.9265354343052 323.2508412493462 1163.9649799862837 328.4209694443026Q1165.0034245382622 333.59109763925915 1165.0034245382622 339.31358995760843L1165.0034245382622 339.31358995760843L1165.0034245382622 377.49299816651785Q1165.0034245382622 379.7245492250247 1165.069708233069 382.17704593288863Q1165.158086492812 384.6516372056883 1165.4011267071046 387.03785021874523Q1165.622072356462 389.42406323180205 1165.9534908304977 391.96493819940883L1165.9534908304977 391.96493819940883L1153.6910072911778 393.24642296568015Z " fill="#008080" transform="matrix(0.7504588223611338,0,0,0.7504588223611337,0,33.24666976151843)"/></g></svg>